<svg xmlns="http://www.w3.org/2000/svg" viewBox="0 0 3231 498" fill="currentColor" role="img" aria-label="moloni ON"><path fill-rule="evenodd" d="M0.13 422.25C0.20 377.30 0.59 349.14 1.08 353.00C5.51 387.92 21.59 419.90 47.14 444.58C69.17 465.86 92.53 478.23 124.00 485.28C133.46 487.40 134.20 487.41 310.77 487.73L488.05 488.05L487.74 310.27L487.43 132.50L485.21 122.80C478.01 91.44 465.06 67.97 442.55 45.45C416.23 19.14 387.25 5.19 349.50 0.66C347.85 0.46 995.51 0.23 1788.75 0.15L3231.00 0.00L3230.85 119.25C3230.77 184.84 3230.53 237.15 3230.32 235.50C3230.12 233.85 3229.02 228.04 3227.89 222.58C3217.59 172.91 3180.58 136.27 3132.92 128.54C3120.90 126.59 3098.41 126.58 3085.50 128.51C3045.82 134.47 3009.68 156.95 2982.91 192.31L2977.00 200.12L2977.00 163.56C2977.00 134.98 2976.73 127.00 2975.75 127.00C2975.06 127.00 2962.91 129.32 2948.75 132.15L2923.00 137.29L2923.00 314.15L2923.00 491.00L2950.00 491.00L2977.00 491.00L2977.00 378.48L2977.00 265.96L2984.04 254.23C3002.65 223.22 3024.46 200.82 3047.12 189.44C3075.14 175.37 3109.26 174.73 3136.00 187.77C3141.68 190.54 3145.60 193.52 3152.13 200.01C3159.45 207.29 3161.45 210.04 3165.27 218.05C3170.49 228.96 3173.51 239.73 3174.96 252.50C3175.60 258.10 3175.99 304.79 3175.99 376.25L3176.00 491.00L3203.50 491.00L3231.00 491.00L3231.00 494.50L3231.00 498.00L2980.75 497.87C2834.79 497.79 2733.63 497.38 2738.00 496.88C2769.14 493.30 2800.11 480.66 2826.00 460.95C2849.03 443.43 2866.84 421.50 2879.99 394.50C2894.04 365.66 2899.88 337.68 2898.69 305.00C2897.80 280.54 2893.44 260.57 2884.28 238.96C2860.48 182.83 2812.11 142.96 2751.88 129.83C2742.81 127.85 2738.61 127.56 2718.50 127.54C2698.40 127.52 2694.06 127.80 2684.10 129.82C2609.23 144.94 2551.78 202.22 2536.97 276.55C2534.17 290.58 2533.18 319.44 2534.97 334.84C2538.02 361.10 2547.42 387.58 2562.10 411.25C2571.70 426.74 2587.01 444.11 2601.50 455.98C2628.50 478.09 2663.53 493.00 2697.50 496.83C2702.30 497.38 2164.64 497.79 1352.75 497.87L0.00 498.00L0.13 422.25ZM1339.03 495.95C1403.38 487.95 1457.11 449.28 1484.86 390.98C1512.87 332.14 1507.83 262.94 1471.58 208.52C1443.11 165.79 1400.46 138.01 1348.50 128.33C1337.29 126.25 1309.59 125.47 1297.44 126.90C1239.14 133.77 1188.44 166.02 1158.55 215.26C1119.11 280.22 1123.16 363.38 1168.68 423.31C1197.77 461.62 1242.34 488.36 1288.00 494.92C1292.12 495.51 1296.62 496.16 1298.00 496.36C1303.72 497.20 1331.17 496.92 1339.03 495.95ZM1864.00 494.50C1899.47 488.10 1932.90 471.12 1959.17 446.15C2033.91 375.09 2036.60 256.90 1965.16 182.75C1934.91 151.36 1896.44 132.38 1852.00 126.92C1837.24 125.11 1810.36 126.33 1795.00 129.50C1721.17 144.78 1665.16 200.66 1649.24 274.94C1646.75 286.57 1646.55 289.27 1646.53 311.50C1646.51 332.61 1646.78 336.86 1648.80 346.83C1654.80 376.51 1668.70 406.09 1687.39 428.98C1713.71 461.21 1751.42 484.37 1791.53 492.94C1797.01 494.12 1804.42 495.48 1808.00 495.97C1818.31 497.39 1853.03 496.48 1864.00 494.50ZM678.00 369.65L678.00 249.30L683.75 244.34C697.98 232.05 708.40 225.81 722.50 221.12C759.50 208.80 784.87 220.70 792.62 254.00C794.22 260.85 794.40 271.37 794.73 375.75L795.09 490.00L844.55 490.00L894.00 490.00L894.00 367.66L894.00 245.31L898.80 241.27C914.79 227.78 933.79 219.61 955.22 217.01C982.16 213.74 1000.15 226.53 1006.72 253.65C1008.21 259.78 1008.42 272.48 1008.74 375.25L1009.09 490.00L1058.54 490.00L1108.00 490.00L1107.99 363.25C1107.99 283.80 1107.60 233.14 1106.96 227.50C1103.87 200.14 1090.54 172.87 1071.68 155.30C1045.97 131.34 1012.69 121.85 974.32 127.55C959.30 129.78 948.17 133.25 934.50 139.95C915.74 149.15 898.46 162.12 885.14 177.01L878.80 184.09L873.84 176.04C864.45 160.78 847.49 145.28 831.22 137.10C814.14 128.51 798.23 125.43 775.59 126.32C740.87 127.68 711.94 139.79 687.43 163.22L678.00 172.24L678.00 149.12C678.00 136.40 677.72 126.00 677.38 126.00C676.83 126.00 599.52 141.66 587.75 144.16L583.00 145.17L583.00 317.58L583.00 490.00L630.50 490.00L678.00 490.00L678.00 369.65ZM1622.00 246.00C1622.00 37.30 1621.80 2.00 1620.60 2.00C1619.10 2.00 1530.70 19.72 1527.75 20.61C1526.09 21.11 1526.00 33.17 1526.00 255.57L1526.00 490.00L1574.00 490.00L1622.00 490.00L1622.00 246.00ZM2136.00 374.63L2136.00 259.26L2144.58 250.14C2165.82 227.58 2187.57 216.87 2212.50 216.71C2242.37 216.52 2260.17 230.67 2266.09 259.35C2267.87 268.00 2267.97 274.61 2267.99 379.25L2268.00 490.00L2317.50 490.00L2367.00 490.00L2367.00 363.25C2367.00 276.99 2366.64 233.63 2365.89 227.50C2360.11 180.31 2325.90 141.58 2279.17 129.30C2267.18 126.15 2240.87 125.02 2225.27 126.97C2193.98 130.89 2163.87 145.26 2141.75 166.83L2136.00 172.44L2136.00 149.22C2136.00 136.45 2135.74 126.00 2135.43 126.00C2134.82 126.00 2046.98 143.64 2043.25 144.51L2041.00 145.04L2041.00 317.52L2041.00 490.00L2088.50 490.00L2136.00 490.00L2136.00 374.63ZM2486.00 317.50L2486.00 145.00L2438.00 145.00L2390.00 145.00L2390.00 317.50L2390.00 490.00L2438.00 490.00L2486.00 490.00L2486.00 317.50ZM2697.14 447.39C2660.57 441.26 2627.58 417.34 2607.66 382.50C2585.08 343.02 2583.20 293.80 2602.62 251.16C2611.32 232.08 2630.98 208.70 2647.50 197.80C2696.84 165.24 2758.48 169.84 2800.60 209.24C2825.50 232.54 2840.62 266.13 2843.48 304.50C2845.34 329.58 2837.25 362.64 2823.59 385.76C2816.22 398.24 2810.91 404.89 2799.87 415.53C2781.75 432.98 2761.73 443.25 2737.61 447.45C2726.84 449.33 2708.53 449.30 2697.14 447.39ZM1306.11 410.98C1273.33 406.40 1247.71 383.45 1236.06 348.22C1220.64 301.64 1235.83 248.98 1271.58 225.07C1294.86 209.51 1327.30 207.06 1352.73 218.96C1394.36 238.44 1414.01 297.85 1396.33 350.75C1386.13 381.28 1365.31 402.30 1338.64 409.00C1329.29 411.35 1314.97 412.22 1306.11 410.98ZM1823.50 411.39C1798.98 407.80 1781.45 398.30 1767.87 381.24C1732.07 336.28 1737.77 264.10 1779.87 229.38C1803.39 209.98 1840.89 205.82 1868.31 219.59C1899.74 235.36 1918.38 272.36 1916.64 315.50C1915.29 348.75 1903.48 376.01 1882.71 393.82C1875.55 399.96 1861.42 407.12 1852.00 409.38C1845.28 411.00 1828.77 412.16 1823.50 411.39ZM143.25 392.51C124.71 389.14 107.87 375.90 99.98 358.50C94.27 345.88 94.50 351.78 94.50 218.00L94.50 94.50L218.50 94.50C335.76 94.50 342.85 94.60 349.00 96.34C369.61 102.15 385.26 117.62 391.66 138.50C393.40 144.19 393.50 150.96 393.50 269.00L393.50 393.50L272.00 393.66C175.34 393.79 149.02 393.55 143.25 392.51ZM299.00 244.00L299.00 189.00L244.00 189.00L189.00 189.00L189.00 244.00L189.00 299.00L244.00 299.00L299.00 299.00L299.00 244.00ZM2486.00 65.88C2486.00 36.74 2485.89 34.80 2484.25 35.22C2483.29 35.47 2461.69 39.68 2436.25 44.57L2390.00 53.46L2390.00 75.23L2390.00 97.00L2438.00 97.00L2486.00 97.00L2486.00 65.88ZM0.00 47.00L0.00 0.00L47.00 0.00L94.00 0.00L94.00 47.00L94.00 94.00L47.00 94.00L0.00 94.00L0.00 47.00Z"/></svg>